<?xml version="1.0" standalone="no"?>
<!DOCTYPE svg PUBLIC "-//W3C//DTD SVG 20010904//EN"
 "http://www.w3.org/TR/2001/REC-SVG-20010904/DTD/svg10.dtd">
<svg version="1.0" xmlns="http://www.w3.org/2000/svg"
 width="100.000000pt" height="100.000000pt" viewBox="0 0 100.000000 100.000000"
 preserveAspectRatio="xMidYMid meet">
<metadata>
Created by potrace 1.14, written by Peter Selinger 2001-2017
</metadata>
<g transform="translate(0.000000,100.000000) scale(0.100000,-0.100000)"
fill="#000000" stroke="none">
<path d="M415 793 c-53 -10 -66 -15 -105 -48 -23 -19 -50 -35 -60 -35 -10 0
-40 18 -66 40 -31 25 -59 40 -76 40 -26 0 -28 -3 -28 -40 0 -22 4 -40 9 -40 6
0 31 -18 56 -40 46 -40 52 -42 100 -42 56 0 66 3 102 36 59 52 73 53 129 6 27
-22 58 -40 69 -41 11 0 29 -2 40 -4 22 -5 105 32 105 46 0 15 58 39 77 32 10
-4 27 -16 39 -29 25 -26 53 -42 86 -48 24 -4 26 -2 26 40 1 30 -3 44 -12 44
-7 0 -23 12 -37 26 -69 74 -169 74 -238 0 -33 -35 -63 -33 -108 9 -41 38 -76
53 -108 48z"/>
<path d="M94 582 c-6 -4 -11 -23 -12 -42 -2 -27 3 -38 22 -50 13 -8 40 -27 58
-42 61 -49 133 -41 204 22 19 16 40 30 47 30 7 0 36 -18 66 -40 29 -22 62 -41
72 -41 10 -1 25 -2 32 -2 33 -3 75 14 103 42 49 48 71 48 128 1 26 -22 57 -40
67 -40 10 0 22 0 27 0 4 0 8 17 10 37 2 31 -2 41 -22 53 -13 8 -40 27 -58 42
-61 49 -133 41 -204 -22 -41 -35 -64 -38 -89 -10 -36 39 -86 64 -132 63 -45
-1 -74 -15 -117 -58 -31 -31 -60 -32 -89 -2 -43 42 -97 70 -113 59z"/>
<path d="M87 373 c-2 -5 -5 -25 -6 -45 -2 -27 1 -38 11 -38 8 0 25 -12 39 -26
69 -74 169 -74 238 0 32 34 61 33 98 -3 43 -41 66 -51 113 -51 47 0 71 10 118
51 41 36 63 36 104 0 41 -35 71 -51 97 -51 18 0 21 6 19 38 -1 31 -7 43 -32
60 -17 12 -42 31 -56 41 -54 42 -128 33 -190 -23 -44 -40 -69 -40 -109 -2 -70
64 -155 68 -217 9 -40 -39 -61 -45 -94 -28 -16 9 -30 19 -30 24 0 5 -19 19
-43 30 -48 23 -54 25 -60 14z"/>
</g>
</svg>
