<?xml version="1.0" standalone="no"?>
<!DOCTYPE svg PUBLIC "-//W3C//DTD SVG 20010904//EN"
 "http://www.w3.org/TR/2001/REC-SVG-20010904/DTD/svg10.dtd">
<svg version="1.0" xmlns="http://www.w3.org/2000/svg"
 width="256.000000pt" height="256.000000pt" viewBox="0 0 256.000000 256.000000"
 preserveAspectRatio="xMidYMid meet">
<metadata>
Created by potrace 1.14, written by Peter Selinger 2001-2017
</metadata>
<g transform="translate(0.000000,256.000000) scale(0.100000,-0.100000)"
fill="#000000" stroke="none">
<path d="M16 2265 c-14 -14 -15 -121 -15 -942 0 -986 -1 -973 47 -1010 56 -43
12 -42 1243 -40 l1166 2 37 29 c70 53 66 -3 66 1020 0 1009 3 956 -55 956 -69
0 -160 -49 -253 -135 -150 -139 -252 -178 -401 -154 -82 13 -147 50 -250 143
-52 46 -119 97 -150 113 -52 26 -65 28 -171 28 -107 0 -119 -2 -172 -29 -31
-15 -69 -40 -85 -55 -16 -14 -58 -51 -92 -82 -121 -110 -233 -143 -379 -113
-88 18 -131 45 -247 153 -59 54 -124 96 -178 115 -60 20 -91 20 -111 1z"/>
</g>
</svg>
