<?xml version="1.0" standalone="no"?>
<!DOCTYPE svg PUBLIC "-//W3C//DTD SVG 20010904//EN"
 "http://www.w3.org/TR/2001/REC-SVG-20010904/DTD/svg10.dtd">
<svg version="1.0" xmlns="http://www.w3.org/2000/svg"
 width="560.000000pt" height="560.000000pt" viewBox="0 0 560.000000 560.000000"
 preserveAspectRatio="xMidYMid meet">
<metadata>
Created by potrace 1.14, written by Peter Selinger 2001-2017
</metadata>
<g transform="translate(0.000000,560.000000) scale(0.100000,-0.100000)"
fill="#000000" stroke="none">
<path d="M1880 4280 c-325 -54 -598 -203 -771 -420 -164 -205 -215 -492 -129
-723 62 -167 227 -317 395 -362 77 -20 185 -21 224 -1 30 16 68 63 66 81 -6
51 -23 81 -76 132 -76 74 -98 109 -101 164 -4 75 20 138 76 195 77 79 168 101
291 69 168 -44 315 -189 374 -369 26 -79 33 -116 36 -199 8 -225 -142 -475
-342 -573 -71 -36 -137 -37 -268 -5 -110 26 -207 32 -260 15 -22 -6 -85 -35
-140 -63 -60 -31 -124 -56 -160 -62 -57 -11 -262 -7 -315 5 -14 4 -74 9 -135
12 -111 7 -243 -11 -283 -37 -17 -10 9 -8 73 7 23 5 204 5 255 -1 19 -2 76 -9
125 -15 120 -16 247 -14 314 6 30 8 99 38 154 65 138 70 206 74 417 24 78 -18
156 -17 209 4 128 51 250 171 325 319 96 191 84 456 -31 651 -159 268 -497
367 -670 194 -62 -62 -87 -124 -87 -213 0 -65 4 -83 27 -123 15 -26 31 -47 35
-47 15 0 107 -99 113 -122 16 -63 -36 -94 -146 -85 -276 24 -495 277 -495 573
0 240 153 506 378 657 149 100 358 179 537 203 28 3 59 8 70 10 27 6 281 5
325 -1 19 -3 55 -7 80 -10 303 -39 657 -208 980 -468 307 -247 453 -480 590
-942 23 -77 50 -167 62 -200 62 -182 175 -313 311 -361 65 -23 98 -27 312 -39
55 -3 116 -8 135 -11 58 -8 171 -44 240 -76 119 -54 246 -73 320 -46 55 20
109 58 104 73 -8 21 -26 19 -76 -7 -68 -35 -159 -30 -278 17 -261 102 -260
102 -485 110 -154 6 -220 18 -295 53 -118 56 -195 171 -265 397 -157 508 -239
664 -475 909 -281 291 -701 536 -1055 615 -192 43 -433 51 -615 21z"/>
<path d="M1700 4085 c-81 -30 -92 -36 -87 -41 6 -6 147 44 147 52 0 7 -24 3
-60 -11z"/>
<path d="M1401 3963 c-69 -42 -165 -132 -212 -200 -33 -48 -84 -152 -77 -158
2 -3 24 30 48 72 52 91 171 215 254 263 54 32 82 60 59 60 -5 0 -37 -17 -72
-37z"/>
<path d="M796 3185 c-18 -63 -18 -66 -1 -85 22 -24 48 -26 66 -4 10 12 10 24
1 60 -7 24 -12 54 -12 65 0 14 -5 19 -14 16 -8 -3 -16 -2 -18 4 -2 5 -12 -20
-22 -56z m40 -30 c15 -38 12 -55 -11 -55 -18 0 -29 35 -21 66 9 32 14 30 32
-11z"/>
<path d="M1089 2705 c-1 -8 -1 -26 -1 -40 0 -54 3 -65 33 -94 36 -36 57 -39
93 -10 46 36 30 79 -51 132 -48 30 -72 34 -74 12z m121 -85 c7 -14 6 -23 -6
-34 -17 -18 -24 -19 -49 -10 -20 8 -45 56 -45 88 l0 25 45 -26 c25 -14 50 -33
55 -43z"/>
<path d="M1537 2614 c-12 -13 5 -24 36 -24 49 -1 90 -43 65 -68 -17 -17 -68
14 -68 41 0 17 -2 19 -9 8 -11 -18 3 -60 26 -76 23 -17 66 -4 80 25 17 34 -10
77 -57 90 -41 11 -64 13 -73 4z"/>
<path d="M1575 1760 c-44 -9 -141 -40 -215 -67 -191 -71 -247 -82 -404 -78
-72 1 -138 5 -146 8 -8 4 -31 9 -50 12 -19 3 -66 12 -105 19 -67 13 -109 14
-49 1 16 -4 40 -11 54 -15 64 -23 228 -50 317 -54 123 -4 226 16 388 76 192
72 228 81 355 82 111 1 143 -2 260 -23 234 -42 406 -42 496 0 69 33 40 43 -52
18 -68 -19 -95 -21 -197 -16 -65 4 -121 8 -125 11 -4 2 -34 7 -67 11 -33 3
-82 11 -110 16 -93 18 -264 18 -350 -1z"/>
<path d="M4291 1674 c-40 -14 -96 -35 -125 -48 -44 -20 -71 -29 -136 -43 -41
-9 -163 -3 -230 12 -244 53 -316 60 -411 43 -72 -13 -152 -52 -184 -89 -40
-48 -29 -50 19 -3 95 91 245 104 501 41 231 -55 301 -53 465 15 115 48 167 59
260 56 88 -2 105 -6 280 -56 145 -41 154 -43 245 -48 64 -4 94 0 148 17 60 19
89 40 75 54 -2 2 -26 -3 -53 -11 -92 -28 -285 -14 -425 31 -8 2 -46 12 -85 21
-38 8 -79 17 -90 20 -11 2 -56 6 -100 8 -65 3 -94 -1 -154 -20z"/>
</g>
</svg>
